<?xml version="1.0" encoding="utf-8"?>
<!-- Generator: Adobe Illustrator 21.0.0, SVG Export Plug-In . SVG Version: 6.00 Build 0)  -->
<svg version="1.1" id="Layer_1" xmlns="http://www.w3.org/2000/svg" xmlns:xlink="http://www.w3.org/1999/xlink" x="0px" y="0px"
	 width="147px" height="138px" viewBox="0 0 147 138" style="enable-background:new 0 0 147 138;" xml:space="preserve">
<style type="text/css">
	.st0{fill:#5FBCCB;}
</style>
<g>
	<path class="st0" d="M146,70.4c-2.6-10.9-12.4-18.6-23.6-18.6c-6.9,0-13.8,0-20.7,0.2L60,12.3c-0.6-0.5-1.2-0.8-2-0.8H44.7
		c-1.1,0-2,0.5-2.5,1.4c-0.5,0.9-0.6,2-0.2,2.9l18.4,37.6C50,53.8,39.6,54.3,29.3,55l-3.1,0.3l-5.4-8.6c-0.5-0.9-1.5-1.4-2.5-1.4
		H3.6c-0.9,0-1.7,0.5-2.3,1.1c-0.6,0.8-0.8,1.7-0.6,2.5l5.2,21.9c1.5,6.4,6.9,11,13.6,11.5l9.7,0.6c10.3,0.8,20.7,1.2,31.1,1.7
		l-18.4,37.6c-0.5,0.9-0.5,2,0.2,2.9c0.5,0.9,1.5,1.4,2.5,1.4h13.3c0.8,0,1.5-0.3,2-0.8l41.9-40c6.9,0.2,13.8,0.2,20.7,0.2h11.3
		c3.8,0,7.5-1.7,9.8-4.8C146,78,147,74.1,146,70.4z M49.3,17.3h7.5l36.6,34.8c-8.9,0.2-17.8,0.5-26.7,0.8L49.3,17.3z M56.8,120.4
		h-7.5l17.5-35.7c8.9,0.3,17.8,0.6,26.7,0.8L56.8,120.4z M139,77.4c-1.2,1.7-3.2,2.6-5.2,2.6h-11.3C91.6,80,60.3,79,29.5,77
		l-9.7-0.6c-4-0.3-7.4-3.1-8.3-7.1L7.3,50.9h9.5l4.4,7.2c1.1,1.8,3.2,2.9,5.4,2.8l3.1-0.2c30.7-2,61.8-3.1,92.8-3.1
		c5.2,0,10.1,2.1,13.5,5.8h-7.5c-2.3,0-4.1,1.8-4.1,4.1c0,2.3,1.8,4.1,4.1,4.1h12l0,0C140.8,73.8,140.4,75.9,139,77.4z"/>
	<path class="st0" d="M116,63.5c-1.7,0-3.1,1.4-3.1,3.1v2c0,1.7,1.4,3.1,3.1,3.1s3.1-1.4,3.1-3.1v-2C119,64.9,117.7,63.5,116,63.5z"
		/>
	<path class="st0" d="M104.6,63.5c-1.7,0-3.1,1.4-3.1,3.1v2c0,1.7,1.4,3.1,3.1,3.1c1.7,0,3.1-1.4,3.1-3.1v-2
		C107.9,64.9,106.5,63.5,104.6,63.5z"/>
	<path class="st0" d="M93.4,63.5c-1.7,0-3.1,1.4-3.1,3.1v2c0,1.7,1.4,3.1,3.1,3.1c1.7,0,3.1-1.4,3.1-3.1v-2
		C96.5,64.9,95.1,63.5,93.4,63.5z"/>
	<path class="st0" d="M82.2,63.5c-1.7,0-3.1,1.4-3.1,3.1v2c0,1.7,1.4,3.1,3.1,3.1s3.1-1.4,3.1-3.1v-2C85.3,64.9,83.9,63.5,82.2,63.5
		z"/>
</g>
</svg>
