<?xml version="1.0" encoding="utf-8"?>
<!-- Generator: Adobe Illustrator 21.0.0, SVG Export Plug-In . SVG Version: 6.00 Build 0)  -->
<svg version="1.0" id="Camada_1" xmlns="http://www.w3.org/2000/svg" xmlns:xlink="http://www.w3.org/1999/xlink" x="0px" y="0px"
	 width="24px" height="24px" viewBox="0 0 24 24" style="enable-background:new 0 0 24 24;" xml:space="preserve">
<style type="text/css">
	.st0{fill:#54A8B3;}
</style>
<title>19</title>
<g>
	<g>
		<path d="M-23.6,1.9h-0.8v0.7c-0.6,0-1.1,0.5-1.1,1.1v0.7c0,0.6,0.5,1.1,1.1,1.1h0.8c0.2,0,0.4,0.2,0.4,0.4v0.7
			c0,0.2-0.2,0.4-0.4,0.4h-0.8c-0.2,0-0.4-0.2-0.4-0.4V6.3h-0.8v0.4c0,0.6,0.5,1.1,1.1,1.1v0.7h0.8V7.8c0.6,0,1.1-0.5,1.1-1.1V6
			c0-0.6-0.5-1.1-1.1-1.1h-0.8c-0.2,0-0.4-0.2-0.4-0.4V3.7c0-0.2,0.2-0.4,0.4-0.4h0.8c0.2,0,0.4,0.2,0.4,0.4v0.4h0.8V3.7
			c0-0.6-0.5-1.1-1.1-1.1V1.9L-23.6,1.9z"/>
	</g>
	<g>
		<path d="M-16,3h-0.8v0.7c-0.6,0-1.1,0.5-1.1,1.1v0.7c0,0.6,0.5,1.1,1.1,1.1h0.8c0.2,0,0.4,0.2,0.4,0.4v0.7c0,0.2-0.2,0.4-0.4,0.4
			h-0.8c-0.2,0-0.4-0.2-0.4-0.4V7.5h-0.8v0.4c0,0.6,0.5,1.1,1.1,1.1v0.7h0.8V8.9c0.6,0,1.1-0.5,1.1-1.1V7.1c0-0.6-0.5-1.1-1.1-1.1
			h-0.8c-0.2,0-0.4-0.2-0.4-0.4V4.8c0-0.2,0.2-0.4,0.4-0.4h0.8c0.2,0,0.4,0.2,0.4,0.4v0.4h0.8V4.8c0-0.6-0.5-1.1-1.1-1.1V3L-16,3z"
			/>
	</g>
	<g>
		<path d="M-24,0c-1.1,0-2.1,0.3-3.1,0.9c-2.4,1.7-3,4.9-1.3,7.3c0.1,0.1,0.1,0.2,0.2,0.3c-0.4,0.1-0.8,0.4-1.2,0.7v-1
			c0-0.2-0.2-0.4-0.4-0.4c0,0,0,0,0,0h-3.4c-0.2,0-0.4,0.2-0.4,0.4c0,0,0,0,0,0v8.2c0,0.2,0.2,0.4,0.4,0.4c0,0,0,0,0,0h3.4
			c0.2,0,0.4-0.2,0.4-0.4c0,0,0,0,0,0v-1.7l2.3,2.2c0.6,0.6,1.5,1,2.4,1c0,0,0,0,0,0h5.1c0,0,0,0,0,0c0.9,0,1.8-0.4,2.4-1l6-5.8
			c0.8-0.7,0.8-1.9,0.1-2.7c-0.1-0.1-0.2-0.2-0.3-0.2c0,0,0,0,0,0l0,0c0,0,0,0,0,0c1-2.7-0.4-5.7-3.2-6.7c-0.6-0.2-1.2-0.3-1.8-0.3
			c-1.2,0-2.3,0.4-3.3,1.1C-20.7,0.8-22.3,0-24,0L-24,0z M-27.3,8.3c-0.8-0.8-1.3-1.9-1.3-3.1c0-2.5,2-4.5,4.6-4.5c0,0,0,0,0,0
			c1.5,0,2.9,0.7,3.8,2c-1.9,1.9-2,4.9-0.2,7h-3.8l-0.4-0.4c-0.6-0.6-1.5-1-2.4-1c0,0,0,0,0,0C-27.1,8.3-27.2,8.3-27.3,8.3
			L-27.3,8.3z M-19.4,9.7c-1.9-1.6-2.1-4.5-0.4-6.3c0.9-1,2.2-1.5,3.4-1.5c1.1,0,2.2,0.4,3,1.1c1,0.8,1.6,2.1,1.6,3.4
			c0,0.5-0.1,1-0.3,1.5c-0.2,0-0.4-0.1-0.5-0.1c-0.5,0-1,0.2-1.4,0.6l-2.6,2.5c-0.3-0.7-1.1-1.2-1.9-1.2H-19.4L-19.4,9.7z
			 M-24.4,13.8h5.9c1.2,0,2.1-0.9,2.1-2c0,0,0,0,0,0l2.9-2.9c0.2-0.2,0.6-0.3,0.9-0.3c0.3,0,0.6,0.1,0.9,0.3c0.5,0.5,0.5,1.2,0,1.7
			l-6,5.8c-0.5,0.5-1.2,0.8-1.9,0.8c0,0,0,0,0,0h-5.1c0,0,0,0,0,0c-0.7,0-1.4-0.3-1.9-0.8l-2.8-2.7v-3.4l0.4-0.4
			c0.5-0.5,1.2-0.8,1.9-0.8c0.7,0,1.4,0.3,1.9,0.8c0,0,0,0,0,0l0.5,0.5c0.1,0.1,0.2,0.1,0.3,0.1h5.9c0.7,0,1.3,0.6,1.3,1.3
			c0,0.7-0.6,1.3-1.3,1.3h-5.9V13.8L-24.4,13.8z M-32.8,16V8.6h2.7V16H-32.8L-32.8,16z"/>
	</g>
</g>
<g>
	<g>
		<path class="st0" d="M12.1,8.5c-1.6,0-2.8-1.3-2.8-2.8s1.3-2.8,2.8-2.8S15,4.1,15,5.7S13.7,8.5,12.1,8.5z M12.1,4.1
			c-0.8,0-1.5,0.7-1.5,1.5c0,0.8,0.7,1.5,1.5,1.5s1.5-0.7,1.5-1.5C13.6,4.8,13,4.1,12.1,4.1z"/>
	</g>
</g>
<g>
	<g>
		<path class="st0" d="M12.1,2.5c-0.4,0-0.7-0.3-0.7-0.7V0.9c0-0.4,0.3-0.7,0.7-0.7s0.7,0.3,0.7,0.7v0.9C12.8,2.2,12.5,2.5,12.1,2.5
			z"/>
	</g>
</g>
<g>
	<g>
		<path class="st0" d="M9.4,3.6c-0.2,0-0.3-0.1-0.5-0.2L8.3,2.7C8,2.5,8,2.1,8.3,1.8c0.3-0.3,0.7-0.3,0.9,0l0.7,0.7
			c0.3,0.3,0.3,0.7,0,0.9C9.8,3.5,9.6,3.6,9.4,3.6z"/>
	</g>
</g>
<g>
	<g>
		<path class="st0" d="M8.3,6.3H7.3C7,6.3,6.7,6,6.7,5.7C6.7,5.3,7,5,7.3,5h0.9c0.4,0,0.7,0.3,0.7,0.7C8.9,6,8.7,6.3,8.3,6.3z"/>
	</g>
</g>
<g>
	<g>
		<path class="st0" d="M8.7,9.7c-0.2,0-0.3-0.1-0.5-0.2C8,9.2,8,8.8,8.3,8.6l0.7-0.7c0.3-0.3,0.7-0.3,0.9,0c0.3,0.3,0.3,0.7,0,0.9
			L9.2,9.5C9.1,9.6,8.9,9.7,8.7,9.7z"/>
	</g>
</g>
<g>
	<g>
		<path class="st0" d="M12.1,11.1c-0.4,0-0.7-0.3-0.7-0.7V9.5c0-0.4,0.3-0.7,0.7-0.7s0.7,0.3,0.7,0.7v0.9
			C12.8,10.8,12.5,11.1,12.1,11.1z"/>
	</g>
</g>
<g>
	<g>
		<path class="st0" d="M15.5,9.7c-0.2,0-0.3-0.1-0.5-0.2l-0.7-0.7c-0.3-0.3-0.3-0.7,0-0.9c0.3-0.3,0.7-0.3,0.9,0L16,8.6
			c0.1,0.1,0.2,0.3,0.2,0.5S16.1,9.4,16,9.5C15.8,9.6,15.7,9.7,15.5,9.7z"/>
	</g>
</g>
<g>
	<g>
		<path class="st0" d="M16.9,6.3H16c-0.4,0-0.7-0.3-0.7-0.7C15.3,5.3,15.6,5,16,5h0.9c0.4,0,0.7,0.3,0.7,0.7
			C17.6,6,17.3,6.3,16.9,6.3z"/>
	</g>
</g>
<g>
	<g>
		<path class="st0" d="M14.8,3.6c-0.2,0-0.3-0.1-0.5-0.2c-0.3-0.3-0.3-0.7,0-0.9L15,1.8c0.2-0.2,0.7-0.2,0.9,0
			c0.3,0.3,0.3,0.7,0,0.9l-0.7,0.7C15.2,3.5,15,3.6,14.8,3.6z"/>
	</g>
</g>
<g>
	<g>
		<path class="st0" d="M19.6,21.1h-15c-0.2,0-0.4-0.1-0.5-0.2C4,20.8,3.9,20.6,4,20.4l0.8-8c0-0.3,0.3-0.6,0.7-0.6h13.5
			c0.3,0,0.6,0.3,0.7,0.6l0.8,8c0,0.2,0,0.4-0.2,0.5C20,21,19.8,21.1,19.6,21.1z M5.3,19.8h13.6l-0.6-6.7H6L5.3,19.8z"/>
	</g>
</g>
<g>
	<g>
		<path class="st0" d="M12.1,23.8c-0.4,0-0.7-0.3-0.7-0.7v-2.7c0-0.4,0.3-0.7,0.7-0.7s0.7,0.3,0.7,0.7v2.7
			C12.8,23.5,12.5,23.8,12.1,23.8z"/>
	</g>
</g>
<g>
	<g>
		<path class="st0" d="M23.3,23.8H1c-0.4,0-0.7-0.3-0.7-0.7s0.3-0.7,0.7-0.7h22.3c0.4,0,0.7,0.3,0.7,0.7S23.6,23.8,23.3,23.8z"/>
	</g>
</g>
<g>
	<g>
		<path class="st0" d="M8.4,21.1L8.4,21.1c-0.4,0-0.7-0.3-0.7-0.7l0.4-7.9c0-0.2,0.1-0.3,0.2-0.5c0.1-0.1,0.3-0.2,0.5-0.2
			c0.4,0,0.6,0.3,0.6,0.7L9,20.4C9,20.8,8.7,21.1,8.4,21.1z"/>
	</g>
</g>
<g>
	<g>
		<path class="st0" d="M12.1,21.1c-0.4,0-0.7-0.3-0.7-0.7v-7.9c0-0.4,0.3-0.7,0.7-0.7s0.7,0.3,0.7,0.7v7.9
			C12.8,20.8,12.5,21.1,12.1,21.1z"/>
	</g>
</g>
<g>
	<g>
		<path class="st0" d="M15.9,21.1L15.9,21.1c-0.4,0-0.7-0.3-0.7-0.6l-0.4-7.9c0-0.4,0.3-0.7,0.6-0.7c0.2,0,0.3,0,0.5,0.2
			c0.1,0.1,0.2,0.3,0.2,0.5l0.4,7.9C16.6,20.7,16.3,21,15.9,21.1L15.9,21.1z M15.4,12.5L15.4,12.5L15.4,12.5L15.4,12.5z"/>
	</g>
</g>
<g>
	<g>
		<path class="st0" d="M19.2,17.1H5.1c-0.4,0-0.7-0.3-0.7-0.7s0.3-0.7,0.7-0.7h14.1c0.4,0,0.7,0.3,0.7,0.7S19.5,17.1,19.2,17.1z"/>
	</g>
</g>
</svg>
