<?xml version="1.0" encoding="utf-8"?>
<!-- Generator: Adobe Illustrator 21.0.0, SVG Export Plug-In . SVG Version: 6.00 Build 0)  -->
<svg version="1.1" id="Layer_1" xmlns="http://www.w3.org/2000/svg" xmlns:xlink="http://www.w3.org/1999/xlink" x="0px" y="0px"
	 width="147px" height="138px" viewBox="0 0 147 138" style="enable-background:new 0 0 147 138;" xml:space="preserve">
<g>
	<path d="M63.6,41.2v5.6c0,1.8,1.4,3.2,3.2,3.2h13.3c1.8,0,3.2-1.4,3.2-3.2v-5.6H89c1.8,0,3.2-1.4,3.2-3.2V24.7
		c0-1.8-1.4-3.2-3.2-3.2h-5.6v-5.6c0-1.8-1.4-3.2-3.2-3.2H66.9c-1.8,0-3.2,1.4-3.2,3.2v5.6H58c-1.8,0-3.2,1.4-3.2,3.2V38
		c0,1.8,1.4,3.2,3.2,3.2H63.6z M80.1,27.8h5.6v6.9h-5.6c-1.8,0-3.2,1.4-3.2,3.2v5.6H70V38c0-1.8-1.4-3.2-3.2-3.2h-5.6v-6.9h5.6
		c1.8,0,3.2-1.4,3.2-3.2V19h6.9v5.6C76.9,26.4,78.3,27.8,80.1,27.8z"/>
	<path d="M18.1,109.9H27c1.8,0,3.2-1.4,3.2-3.2v-8.9c0-1.8-1.4-3.2-3.2-3.2h-8.9c-1.8,0-3.2,1.4-3.2,3.2v8.9
		C14.9,108.5,16.3,109.9,18.1,109.9z M23.7,101v2.5h-2.4V101H23.7z"/>
	<path d="M18.1,127.6H27c1.8,0,3.2-1.4,3.2-3.2v-8.9c0-1.8-1.4-3.2-3.2-3.2h-8.9c-1.8,0-3.2,1.4-3.2,3.2v8.9
		C14.9,126.2,16.3,127.6,18.1,127.6z M23.7,118.8v2.4h-2.4v-2.4H23.7z"/>
	<path d="M120,109.9h8.9c1.8,0,3.2-1.4,3.2-3.2v-8.9c0-1.8-1.4-3.2-3.2-3.2H120c-1.8,0-3.2,1.4-3.2,3.2v8.9
		C116.8,108.5,118.2,109.9,120,109.9z M123.3,103.4V101h2.4v2.4H123.3z"/>
	<path d="M120,127.6h8.9c1.8,0,3.2-1.4,3.2-3.2v-8.9c0-1.8-1.4-3.2-3.2-3.2H120c-1.8,0-3.2,1.4-3.2,3.2v8.9
		C116.8,126.2,118.2,127.6,120,127.6z M123.3,121.2v-2.4h2.4v2.4H123.3z"/>
	<path d="M78,63.6h-8.9c-1.8,0-3.2,1.4-3.2,3.2v8.9c0,1.8,1.4,3.2,3.2,3.2H78c1.8,0,3.2-1.4,3.2-3.2v-8.9C81.2,65,79.8,63.6,78,63.6
		z M74.7,70v2.4h-2.4V70H74.7z"/>
	<path d="M78,81.3h-8.9c-1.8,0-3.2,1.4-3.2,3.2v8.9c0,1.8,1.4,3.2,3.2,3.2H78c1.8,0,3.2-1.4,3.2-3.2v-8.9
		C81.2,82.7,79.8,81.3,78,81.3z M74.7,87.7v2.4h-2.4v-2.4H74.7z"/>
	<path d="M86.8,78.9h8.9c1.8,0,3.2-1.4,3.2-3.2v-8.9c0-1.8-1.4-3.2-3.2-3.2h-8.9c-1.8,0-3.2,1.4-3.2,3.2v8.9
		C83.6,77.5,85,78.9,86.8,78.9z M90,72.4V70h2.4v2.4H90z"/>
	<path d="M86.8,96.6h8.9c1.8,0,3.2-1.4,3.2-3.2v-8.9c0-1.8-1.4-3.2-3.2-3.2h-8.9c-1.8,0-3.2,1.4-3.2,3.2v8.9
		C83.6,95.2,85,96.6,86.8,96.6z M90,90.1v-2.4h2.4v2.4H90z"/>
	<path d="M95.7,114.3c1.8,0,3.2-1.4,3.2-3.2v-8.9c0-1.8-1.4-3.2-3.2-3.2h-8.9c-1.8,0-3.2,1.4-3.2,3.2v8.9c0,1.8,1.4,3.2,3.2,3.2
		H95.7z M90,107.9v-2.4h2.4v2.4H90z"/>
	<path d="M78,99h-8.9c-1.8,0-3.2,1.4-3.2,3.2v8.9c0,1.8,1.4,3.2,3.2,3.2H78c1.8,0,3.2-1.4,3.2-3.2v-8.9C81.2,100.4,79.8,99,78,99z
		 M74.7,105.5v2.4h-2.4v-2.4H74.7z"/>
	<path d="M60.2,99h-8.9c-1.8,0-3.2,1.4-3.2,3.2v8.9c0,1.8,1.4,3.2,3.2,3.2h8.9c1.8,0,3.2-1.4,3.2-3.2v-8.9C63.4,100.4,62,99,60.2,99
		z M57,105.5v2.4h-2.4v-2.4H57z"/>
	<path d="M60.2,63.6h-8.9c-1.8,0-3.2,1.4-3.2,3.2v8.9c0,1.8,1.4,3.2,3.2,3.2h8.9c1.8,0,3.2-1.4,3.2-3.2v-8.9
		C63.4,65,62,63.6,60.2,63.6z M57,70v2.4h-2.4V70H57z"/>
	<path d="M60.2,81.3h-8.9c-1.8,0-3.2,1.4-3.2,3.2v8.9c0,1.8,1.4,3.2,3.2,3.2h8.9c1.8,0,3.2-1.4,3.2-3.2v-8.9
		C63.4,82.7,62,81.3,60.2,81.3z M57,87.7v2.4h-2.4v-2.4H57z"/>
	<path d="M140.9,80.2c0.1-0.8-0.2-1.6-0.8-2.3c-0.6-0.6-1.4-1-2.3-1h-23.4V29.1c0-1.8-1.4-3.2-3.2-3.2h-8.4
		c-1.4-7.5-5.5-14.1-11.7-18.7C84.7,2.6,76.9,0.7,69,1.9c-12.6,1.9-22.4,11.5-24.7,24H36c-1.8,0-3.2,1.4-3.2,3.2v47.8H9.2
		c-1.8,0-3.2,1.4-3.2,3.2v53.2c0,1.8,1.4,3.2,3.2,3.2h128.5c1.8,0,3.2-1.4,3.2-3.2L140.9,80.2z M134.5,83.3v2.4h-20.2v-2.4H134.5z
		 M134.5,92.2v37.9h-20.2V92.2H134.5z M79.2,123.2v6.9H67.9v-6.9H79.2z M39,52.5V32.3h4.6c0.3,7.6,3.4,14.8,8.8,20.2H39z M50.1,31.3
		C50.1,18.5,60.6,8,73.5,8c12.9,0,23.4,10.5,23.4,23.3c0,12.9-10.5,23.4-23.4,23.4C60.6,54.7,50.1,44.2,50.1,31.3z M82.4,116.8H64.6
		c-1.8,0-3.2,1.4-3.2,3.2v10.1H39V58.9h23.3c7.3,3,15.2,3,22.5,0H108V130H85.6v-10C85.6,118.2,84.2,116.8,82.4,116.8z M108,32.3
		v20.2H94.5c5.4-5.4,8.5-12.6,8.8-20.2H108z M32.7,92.2v37.9H12.5V92.2H32.7z M32.7,83.3v2.4H12.5v-2.4H32.7z"/>
</g>
</svg>
