<?xml version="1.0" encoding="utf-8"?>
<!-- Generator: Adobe Illustrator 21.0.0, SVG Export Plug-In . SVG Version: 6.00 Build 0)  -->
<svg version="1.0" id="Camada_1" xmlns="http://www.w3.org/2000/svg" xmlns:xlink="http://www.w3.org/1999/xlink" x="0px" y="0px"
	 width="24px" height="24px" viewBox="0 0 24 24" style="enable-background:new 0 0 24 24;" xml:space="preserve">
<style type="text/css">
	.st0{fill:#54A8B3;}
</style>
<title>19</title>
<g>
	<g>
		<path d="M-23.6,1.9h-0.8v0.7c-0.6,0-1.1,0.5-1.1,1.1v0.7c0,0.6,0.5,1.1,1.1,1.1h0.8c0.2,0,0.4,0.2,0.4,0.4v0.7
			c0,0.2-0.2,0.4-0.4,0.4h-0.8c-0.2,0-0.4-0.2-0.4-0.4V6.3h-0.8v0.4c0,0.6,0.5,1.1,1.1,1.1v0.7h0.8V7.8c0.6,0,1.1-0.5,1.1-1.1V6
			c0-0.6-0.5-1.1-1.1-1.1h-0.8c-0.2,0-0.4-0.2-0.4-0.4V3.7c0-0.2,0.2-0.4,0.4-0.4h0.8c0.2,0,0.4,0.2,0.4,0.4v0.4h0.8V3.7
			c0-0.6-0.5-1.1-1.1-1.1V1.9L-23.6,1.9z"/>
	</g>
	<g>
		<path d="M-16,3h-0.8v0.7c-0.6,0-1.1,0.5-1.1,1.1v0.7c0,0.6,0.5,1.1,1.1,1.1h0.8c0.2,0,0.4,0.2,0.4,0.4v0.7c0,0.2-0.2,0.4-0.4,0.4
			h-0.8c-0.2,0-0.4-0.2-0.4-0.4V7.5h-0.8v0.4c0,0.6,0.5,1.1,1.1,1.1v0.7h0.8V8.9c0.6,0,1.1-0.5,1.1-1.1V7.1c0-0.6-0.5-1.1-1.1-1.1
			h-0.8c-0.2,0-0.4-0.2-0.4-0.4V4.8c0-0.2,0.2-0.4,0.4-0.4h0.8c0.2,0,0.4,0.2,0.4,0.4v0.4h0.8V4.8c0-0.6-0.5-1.1-1.1-1.1V3L-16,3z"
			/>
	</g>
	<g>
		<path d="M-24,0c-1.1,0-2.1,0.3-3.1,0.9c-2.4,1.7-3,4.9-1.3,7.3c0.1,0.1,0.1,0.2,0.2,0.3c-0.4,0.1-0.8,0.4-1.2,0.7v-1
			c0-0.2-0.2-0.4-0.4-0.4c0,0,0,0,0,0h-3.4c-0.2,0-0.4,0.2-0.4,0.4c0,0,0,0,0,0v8.2c0,0.2,0.2,0.4,0.4,0.4c0,0,0,0,0,0h3.4
			c0.2,0,0.4-0.2,0.4-0.4c0,0,0,0,0,0v-1.7l2.3,2.2c0.6,0.6,1.5,1,2.4,1c0,0,0,0,0,0h5.1c0,0,0,0,0,0c0.9,0,1.8-0.4,2.4-1l6-5.8
			c0.8-0.7,0.8-1.9,0.1-2.7c-0.1-0.1-0.2-0.2-0.3-0.2c0,0,0,0,0,0l0,0c0,0,0,0,0,0c1-2.7-0.4-5.7-3.2-6.7c-0.6-0.2-1.2-0.3-1.8-0.3
			c-1.2,0-2.3,0.4-3.3,1.1C-20.7,0.8-22.3,0-24,0L-24,0z M-27.3,8.3c-0.8-0.8-1.3-1.9-1.3-3.1c0-2.5,2-4.5,4.6-4.5c0,0,0,0,0,0
			c1.5,0,2.9,0.7,3.8,2c-1.9,1.9-2,4.9-0.2,7h-3.8l-0.4-0.4c-0.6-0.6-1.5-1-2.4-1c0,0,0,0,0,0C-27.1,8.3-27.2,8.3-27.3,8.3
			L-27.3,8.3z M-19.4,9.7c-1.9-1.6-2.1-4.5-0.4-6.3c0.9-1,2.2-1.5,3.4-1.5c1.1,0,2.2,0.4,3,1.1c1,0.8,1.6,2.1,1.6,3.4
			c0,0.5-0.1,1-0.3,1.5c-0.2,0-0.4-0.1-0.5-0.1c-0.5,0-1,0.2-1.4,0.6l-2.6,2.5c-0.3-0.7-1.1-1.2-1.9-1.2H-19.4L-19.4,9.7z
			 M-24.4,13.8h5.9c1.2,0,2.1-0.9,2.1-2c0,0,0,0,0,0l2.9-2.9c0.2-0.2,0.6-0.3,0.9-0.3c0.3,0,0.6,0.1,0.9,0.3c0.5,0.5,0.5,1.2,0,1.7
			l-6,5.8c-0.5,0.5-1.2,0.8-1.9,0.8c0,0,0,0,0,0h-5.1c0,0,0,0,0,0c-0.7,0-1.4-0.3-1.9-0.8l-2.8-2.7v-3.4l0.4-0.4
			c0.5-0.5,1.2-0.8,1.9-0.8c0.7,0,1.4,0.3,1.9,0.8c0,0,0,0,0,0l0.5,0.5c0.1,0.1,0.2,0.1,0.3,0.1h5.9c0.7,0,1.3,0.6,1.3,1.3
			c0,0.7-0.6,1.3-1.3,1.3h-5.9V13.8L-24.4,13.8z M-32.8,16V8.6h2.7V16H-32.8L-32.8,16z"/>
	</g>
</g>
<g transform="translate(0,6.35)">
	<g>
		<path class="st0" d="M11.8-5.5c-0.2,0-0.4,0.2-0.4,0.4v1.8c0,0.2,0.2,0.4,0.4,0.4c0.2,0,0.4-0.2,0.4-0.4c0,0,0,0,0,0v-1.8
			C12.2-5.3,12.1-5.5,11.8-5.5C11.8-5.5,11.8-5.5,11.8-5.5z M4.5-2.5c-0.2,0-0.4,0.2-0.4,0.4c0,0.1,0,0.2,0.1,0.3l1.3,1.3
			c0.2,0.2,0.4,0.2,0.6,0c0.2-0.2,0.2-0.4,0-0.6c0,0,0,0,0,0L4.8-2.4C4.7-2.5,4.6-2.5,4.5-2.5L4.5-2.5z M19.1-2.5
			c-0.1,0-0.2,0-0.3,0.1l-1.3,1.3c-0.2,0.2-0.2,0.4,0,0.6s0.4,0.2,0.6,0c0,0,0,0,0,0l1.3-1.3c0.2-0.2,0.2-0.4,0-0.6
			C19.3-2.5,19.2-2.5,19.1-2.5L19.1-2.5z M11.8-1.6L11.8-1.6C8.1-1.6,5,1.4,5,5.2c0,0,0,0,0,0c0,2.5,1.3,4.7,3.5,5.9v1.9
			c0,0,0,0.1,0,0.1v2.1c0,0.2,0.2,0.4,0.4,0.4h5.9c0.2,0,0.4-0.2,0.4-0.4v-2.1c0,0,0-0.1,0-0.1v-1.9c2.1-1.2,3.5-3.5,3.5-5.9
			c0,0,0,0,0,0C18.6,1.4,15.6-1.6,11.8-1.6L11.8-1.6z M11.8-0.8L11.8-0.8c3.3,0,6,2.7,6,6c0,2.2-1.3,4.3-3.3,5.3
			c-0.1,0.1-0.2,0.2-0.2,0.3v1.8h-2.2V8.3L14,7c0.2-0.1,0.2-0.4,0.1-0.6c-0.1-0.1-0.2-0.2-0.3-0.2c-0.1,0-0.2,0-0.2,0.1l-1.6,1.3
			l-1.6-1.3C10,6.2,9.8,6.3,9.6,6.4C9.5,6.6,9.5,6.9,9.7,7c0,0,0,0,0,0l1.7,1.3v4.3H9.3v-1.8c0-0.1-0.1-0.3-0.2-0.3
			c-2-1-3.2-3.1-3.3-5.3v0C5.8,1.8,8.5-0.8,11.8-0.8L11.8-0.8z M1.5,4.8c-0.2,0-0.4,0.2-0.4,0.4c0,0.2,0.2,0.4,0.4,0.4c0,0,0,0,0,0
			h1.8c0.2,0,0.4-0.2,0.4-0.4c0-0.2-0.2-0.4-0.4-0.4c0,0,0,0,0,0H1.5z M20.3,4.8c-0.2,0-0.4,0.2-0.4,0.4c0,0.2,0.2,0.4,0.4,0.4
			c0,0,0,0,0,0h1.8c0.2,0,0.4-0.2,0.4-0.4c0-0.2-0.2-0.4-0.4-0.4c0,0,0,0,0,0H20.3z M9.3,13.4h5.1v1.4H9.3V13.4z M10,16.5
			c-0.2,0-0.4,0.2-0.4,0.4c0,0.2,0.2,0.4,0.4,0.4c0,0,0,0,0,0h3.7c0.2,0,0.4-0.2,0.4-0.4c0-0.2-0.2-0.4-0.4-0.4c0,0,0,0,0,0H10z"/>
	</g>
</g>
</svg>
