<?xml version="1.0" encoding="utf-8"?>
<!-- Generator: Adobe Illustrator 21.0.0, SVG Export Plug-In . SVG Version: 6.00 Build 0)  -->
<svg version="1.1" id="Layer_1" xmlns="http://www.w3.org/2000/svg" xmlns:xlink="http://www.w3.org/1999/xlink" x="0px" y="0px"
	 width="147px" height="138px" viewBox="0 0 147 138" style="enable-background:new 0 0 147 138;" xml:space="preserve">
<style type="text/css">
	.st0{fill:#5FBCCB;}
</style>
<g>
	<path class="st0" d="M140.7,44.4c-2.1-3.1-6-7.9-12.3-12.7c-9.8-7.4-27.2-16.2-54.9-16.2c-27.7,0-45.2,8.8-54.9,16.2
		C7.3,40.3,2.2,50,2.2,54.1V66v41.6v11.9c0,1.6,1.3,3,3,3h20.8h47.6l0,0h47.6h20.8c1.6,0,3-1.3,3-3v-11.9V66V54.1
		C144.8,51.8,143.3,48.2,140.7,44.4z M22.2,36.4c9-6.8,25.2-15,51.3-15c26.1,0,42.3,8.2,51.3,15c8.4,6.4,12.4,12.9,13.6,16
		c-2.3-3-5.5-6.6-9.9-10.3c-9.8-8.1-27.3-17.8-55-17.8c-27.7,0-45.2,9.7-55,17.8c-4.4,3.7-7.6,7.3-9.9,10.3
		C9.8,49.4,13.7,42.8,22.2,36.4z M70.5,116.6H28.9V80.9h41.6L70.5,116.6L70.5,116.6z M76.5,116.6V80.9h41.6v35.7H76.5z M138.9,116.6
		H124V77.9c0-1.6-1.3-3-3-3H73.5l0,0H25.9c-1.6,0-3,1.3-3,3v38.6H8.1V66c0-1.6,3.5-10.5,14.2-19.3c9-7.5,25.3-16.4,51.2-16.4
		c26,0,42.2,8.9,51.2,16.4c10.6,8.8,14.2,17.7,14.2,19.3L138.9,116.6L138.9,116.6z"/>
	<path class="st0" d="M34.9,101.7h29.7c1.6,0,3-1.3,3-3c0-1.6-1.3-3-3-3H34.9c-1.6,0-3,1.3-3,3C31.9,100.4,33.2,101.7,34.9,101.7z"
		/>
	<path class="st0" d="M34.9,92.8h29.7c1.6,0,3-1.3,3-3c0-1.6-1.3-3-3-3H34.9c-1.6,0-3,1.3-3,3C31.9,91.4,33.2,92.8,34.9,92.8z"/>
	<path class="st0" d="M34.9,110.6h29.7c1.6,0,3-1.3,3-3c0-1.6-1.3-3-3-3H34.9c-1.6,0-3,1.3-3,3C31.9,109.3,33.2,110.6,34.9,110.6z"
		/>
	<path class="st0" d="M112.1,95.8H82.4c-1.6,0-3,1.3-3,3c0,1.6,1.3,3,3,3h29.7c1.6,0,3-1.3,3-3C115.1,97.1,113.8,95.8,112.1,95.8z"
		/>
	<path class="st0" d="M112.1,86.8H82.4c-1.6,0-3,1.3-3,3c0,1.6,1.3,3,3,3h29.7c1.6,0,3-1.3,3-3C115.1,88.2,113.8,86.8,112.1,86.8z"
		/>
	<path class="st0" d="M112.1,104.7H82.4c-1.6,0-3,1.3-3,3c0,1.6,1.3,3,3,3h29.7c1.6,0,3-1.3,3-3C115.1,106,113.8,104.7,112.1,104.7z
		"/>
	<path class="st0" d="M106.2,45.2H40.8c-1.6,0-3,1.3-3,3v11.9c0,1.6,1.3,3,3,3h65.4c1.6,0,3-1.3,3-3V48.2
		C109.2,46.6,107.8,45.2,106.2,45.2z M43.8,51.2h26.8v5.9H43.8C43.8,57.1,43.8,51.2,43.8,51.2z M103.2,57.1H76.5v-5.9h26.7V57.1z"/>
</g>
</svg>
