<?xml version="1.0" encoding="utf-8"?>
<!-- Generator: Adobe Illustrator 21.0.0, SVG Export Plug-In . SVG Version: 6.00 Build 0)  -->
<svg version="1.0" id="Camada_1" xmlns="http://www.w3.org/2000/svg" xmlns:xlink="http://www.w3.org/1999/xlink" x="0px" y="0px"
	 width="24px" height="24px" viewBox="0 0 24 24" style="enable-background:new 0 0 24 24;" xml:space="preserve">
<style type="text/css">
	.st0{fill:#54A8B3;}
</style>
<title>19</title>
<g>
	<g>
		<path class="st0" d="M10.3,5H9.5v0.7c-0.6,0-1.1,0.5-1.1,1.1v0.7c0,0.6,0.5,1.1,1.1,1.1h0.8c0.2,0,0.4,0.2,0.4,0.4v0.7
			c0,0.2-0.2,0.4-0.4,0.4H9.5c-0.2,0-0.4-0.2-0.4-0.4V9.5H8.4v0.4c0,0.6,0.5,1.1,1.1,1.1v0.7h0.8V11c0.6,0,1.1-0.5,1.1-1.1V9.1
			c0-0.6-0.5-1.1-1.1-1.1H9.5C9.3,8,9.1,7.8,9.1,7.6V6.9c0-0.2,0.2-0.4,0.4-0.4h0.8c0.2,0,0.4,0.2,0.4,0.4v0.4h0.8V6.9
			c0-0.6-0.5-1.1-1.1-1.1L10.3,5L10.3,5z"/>
	</g>
	<g>
		<path class="st0" d="M17.9,6.1h-0.8v0.7C16.5,6.9,16,7.4,16,8v0.7c0,0.6,0.5,1.1,1.1,1.1h0.8c0.2,0,0.4,0.2,0.4,0.4V11
			c0,0.2-0.2,0.4-0.4,0.4h-0.8c-0.2,0-0.4-0.2-0.4-0.4v-0.4H16V11c0,0.6,0.5,1.1,1.1,1.1v0.7h0.8v-0.7c0.6,0,1.1-0.5,1.1-1.1v-0.7
			c0-0.6-0.5-1.1-1.1-1.1h-0.8c-0.2,0-0.4-0.2-0.4-0.4V8c0-0.2,0.2-0.4,0.4-0.4h0.8c0.2,0,0.4,0.2,0.4,0.4v0.4h0.8V8
			c0-0.6-0.5-1.1-1.1-1.1L17.9,6.1L17.9,6.1z"/>
	</g>
	<g>
		<path class="st0" d="M9.9,3.2c-1.1,0-2.1,0.3-3.1,0.9c-2.4,1.7-3,4.9-1.3,7.3c0.1,0.1,0.1,0.2,0.2,0.3c-0.4,0.1-0.8,0.4-1.2,0.7
			v-1c0-0.2-0.2-0.4-0.4-0.4l0,0H0.8c-0.2,0-0.4,0.2-0.4,0.4l0,0v8.2c0,0.2,0.2,0.4,0.4,0.4l0,0h3.4c0.2,0,0.4-0.2,0.4-0.4l0,0v-1.7
			l2.3,2.2c0.6,0.6,1.5,1,2.4,1l0,0h5.1l0,0c0.9,0,1.8-0.4,2.4-1l6-5.8c0.8-0.7,0.8-1.9,0.1-2.7c-0.1-0.1-0.2-0.2-0.3-0.2l0,0l0,0
			l0,0c1-2.7-0.4-5.7-3.2-6.7c-0.6-0.2-1.2-0.3-1.8-0.3c-1.2,0-2.3,0.4-3.3,1.1C13.2,3.9,11.6,3.2,9.9,3.2L9.9,3.2z M6.6,11.5
			c-0.8-0.8-1.3-1.9-1.3-3.1c0-2.5,2-4.5,4.6-4.5l0,0c1.5,0,2.9,0.7,3.8,2c-1.9,1.9-2,4.9-0.2,7H9.7l-0.4-0.4c-0.6-0.6-1.5-1-2.4-1
			l0,0C6.8,11.5,6.7,11.5,6.6,11.5L6.6,11.5z M14.5,12.8c-1.9-1.6-2.1-4.5-0.4-6.3C15,5.5,16.3,5,17.5,5c1.1,0,2.2,0.4,3,1.1
			c1,0.8,1.6,2.1,1.6,3.4c0,0.5-0.1,1-0.3,1.5c-0.2,0-0.4-0.1-0.5-0.1c-0.5,0-1,0.2-1.4,0.6L17.3,14c-0.3-0.7-1.1-1.2-1.9-1.2H14.5
			L14.5,12.8z M9.5,16.9h5.9c1.2,0,2.1-0.9,2.1-2l0,0l2.9-2.9c0.2-0.2,0.6-0.3,0.9-0.3s0.6,0.1,0.9,0.3c0.5,0.5,0.5,1.2,0,1.7
			l-6,5.8c-0.5,0.5-1.2,0.8-1.9,0.8l0,0h-5l0,0c-0.7,0-1.4-0.3-1.9-0.8l-2.8-2.7v-3.4L5,13c0.5-0.5,1.2-0.8,1.9-0.8s1.4,0.3,1.9,0.8
			l0,0l0.5,0.5c0.1,0.1,0.2,0.1,0.3,0.1h5.9c0.7,0,1.3,0.6,1.3,1.3s-0.6,1.3-1.3,1.3h-6V16.9L9.5,16.9z M1.1,19.2v-7.4h2.7v7.4H1.1
			L1.1,19.2z"/>
	</g>
</g>
</svg>
