<?xml version="1.0" encoding="utf-8"?>
<!-- Generator: Adobe Illustrator 21.0.0, SVG Export Plug-In . SVG Version: 6.00 Build 0)  -->
<svg version="1.1" id="Layer_1" xmlns="http://www.w3.org/2000/svg" xmlns:xlink="http://www.w3.org/1999/xlink" x="0px" y="0px"
	 width="147px" height="138px" viewBox="0 0 147 138" style="enable-background:new 0 0 147 138;" xml:space="preserve">
<g>
	<path d="M133.3,134.1l-9-104c-0.1-1.7-1.6-3-3.3-3h-14.8c-0.3-14.9-11.8-27-25.9-27c-2.4,0-4.7,0.3-6.8,1c-2.1-0.6-4.4-1-6.8-1
		c-14.1,0-25.6,12.1-25.9,27.1H26c-1.7,0-3.2,1.3-3.3,3l-9,104c-0.1,0.9,0.2,1.7,0.8,2.3c0.6,0.7,1.4,1.1,2.3,1.1H130
		c1.8,0,3.3-1.5,3.3-3.3L133.3,134.1z M36,33.8l-8.5,97.5h-7L29,33.8H36z M57.8,42.9c1.8,0,3.3-1.5,3.3-3.3v-5.8h38.7v5.8
		c0,1.8,1.5,3.3,3.3,3.3c1.9,0,3.3-1.4,3.3-3.3v-5.8H118l8.5,97.5H34.1l8.5-97.5h11.9v5.8C54.5,41.4,56,42.9,57.8,42.9z M47.4,26.9
		c0.4-10,7.2-18.2,15.9-19.9c-5.4,5.1-8.7,12.4-8.8,20.3h-7L47.4,26.9L47.4,26.9z M60.9,27.3c0.2-8.6,5.2-16.2,12.6-19.3
		c7.4,3.1,12.4,10.7,12.6,19.3H60.9z M92.6,27.3c-0.2-7.8-3.4-15.2-8.8-20.3c8.8,1.7,15.6,10.1,15.8,20.3H92.6z"/>
	<circle cx="75.8" cy="75.8" r="3.3"/>
	<circle cx="84.8" cy="89.4" r="3.3"/>
	<path d="M55.6,88.6c0.5,0.6,1.1,1.2,1.2,1.7c0.1,0.3,0.1,0.9,0.1,1.5c0,0.2,0,0.5,0,0.7l0,0.3c-0.1,1.8-0.2,4.1,1.2,6.1
		c1.5,2.1,3.9,2.7,5.7,3.1c0.9,0.2,1.8,0.5,2.1,0.7c0.2,0.1,0.7,0.9,0.9,1.3l0.2,0.3c0.8,1.4,2.2,3.7,4.7,4.5
		c0.7,0.2,1.3,0.3,1.9,0.3c1.6,0,3.1-0.6,4.4-1.2c0.9-0.4,1.8-0.6,2.1-0.6c0.3,0,1.1,0.3,1.6,0.5l0.5,0.2c1.3,0.5,2.8,1.1,4.4,1.1
		c0.6,0,1.3-0.1,1.8-0.2l0.1,0c2.5-0.8,3.9-3.2,4.7-4.5c0.4-0.7,0.9-1.4,1.2-1.7c0.3-0.2,1-0.4,2.1-0.6c2.1-0.5,4.2-1.2,5.7-3.1
		c1.5-1.9,1.3-4.1,1.2-6l0-0.4c-0.1-1.2,0-1.9,0-2c0.1-0.2,0.5-0.8,1.2-1.7c1.1-1.3,2.8-3.3,2.8-6c0-2.6-1.7-4.6-2.8-6
		c-0.7-0.8-1.1-1.4-1.2-1.7c-0.1-0.3-0.1-0.9-0.1-1.4c0-0.2,0-0.5,0-0.7l0-0.3c0.1-1.8,0.2-4.1-1.2-6.1c-1.5-2.1-3.9-2.7-5.7-3.1
		c-0.9-0.2-1.8-0.5-2.1-0.7c-0.2-0.1-0.7-0.9-0.9-1.3l-0.2-0.3c-0.8-1.4-2.2-3.7-4.7-4.5c-2.3-0.8-4.5,0.1-6.3,0.8
		c-0.9,0.4-1.8,0.6-2.1,0.6c-0.3,0-1.1-0.3-1.6-0.5L78,57.4c-1.7-0.7-3.9-1.6-6.2-0.8c-2.5,0.8-3.9,3.2-4.7,4.5
		c-0.4,0.7-0.9,1.4-1.2,1.7c-0.3,0.2-1,0.4-2.1,0.6c-2.1,0.5-4.2,1.2-5.7,3.1c-1.5,1.9-1.3,4.1-1.2,6l0,0.4c0.1,1.2,0,1.9,0,2
		c-0.1,0.2-0.5,0.8-1.2,1.7c-1.1,1.3-2.8,3.3-2.8,6C52.8,85.2,54.5,87.2,55.6,88.6z M63.6,72.3c-0.1-1.2-0.1-1.8-0.1-2
		c0.3-0.1,0.9-0.3,1.3-0.4c0.2-0.1,0.5-0.1,0.6-0.2c1.3-0.3,2.9-0.7,4.3-1.7c1.3-1,2.2-2.2,3-3.5c0.6-1.1,1-1.5,1.1-1.6
		c0.3,0,1.1,0.2,2,0.6l0.3,0.1c1.2,0.5,2.7,1,4.2,1c1.6,0,3-0.6,4.2-1l0.4-0.2c0.8-0.4,1.6-0.6,1.9-0.6c0.3,0.3,1,1.3,1.2,1.6
		l0.1,0.1c0.7,1.1,1.6,2.5,2.9,3.3c1.3,1,2.8,1.3,4.1,1.6l0.2,0c0.9,0.2,1.7,0.5,1.9,0.6c0,0.2,0.1,0.7-0.1,2
		c-0.1,1.3-0.2,3,0.3,4.5c0.4,1.4,1.3,2.5,2.1,3.5l0.3,0.4c1.1,1.3,1.2,1.7,1.3,1.7l0,0.1c-0.1,0.3-0.8,1.2-1.2,1.6l-0.4,0.5
		c-0.8,1-1.7,2.1-2.1,3.4c-0.6,1.6-0.5,3.4-0.4,4.6c0.1,1.2,0.1,1.8,0.1,2c-0.3,0.1-0.9,0.3-1.3,0.4c-0.2,0.1-0.5,0.1-0.6,0.2
		c-1.3,0.3-2.9,0.7-4.3,1.7c-1.3,1-2.2,2.2-3,3.5c-0.6,1.1-1,1.5-1.1,1.6c-0.3,0-1.1-0.2-2-0.6l-0.3-0.1c-1.2-0.5-2.7-1-4.2-1
		c-1.6,0-3,0.5-4.2,1l-0.4,0.2c-0.8,0.4-1.6,0.6-1.9,0.6c-0.3-0.3-1-1.3-1.2-1.6l-0.1-0.1c-0.7-1.1-1.6-2.5-2.9-3.3
		c-1.3-1-2.8-1.3-4.1-1.6l-0.2,0c-0.9-0.2-1.7-0.5-1.9-0.6c0-0.2-0.1-0.7,0.1-2c0.1-1.3,0.2-3-0.3-4.6c-0.4-1.4-1.3-2.5-2.1-3.5
		l-0.3-0.4c-1.1-1.3-1.2-1.7-1.3-1.7c0-0.1,0.2-0.5,1.3-1.8l0.3-0.4c0.8-1,1.7-2.1,2.1-3.4C63.8,75.3,63.7,73.6,63.6,72.3z"/>
	<path d="M74,92c0.5,0.4,1.1,0.6,1.8,0.6c0.2,0,0.4,0,0.6-0.1c0.8-0.2,1.6-0.6,2.1-1.4l9-13.6c0.5-0.7,0.7-1.6,0.5-2.4
		c-0.2-0.8-0.6-1.6-1.3-2.1c-0.7-0.5-1.6-0.7-2.4-0.5c-0.8,0.2-1.6,0.6-2.1,1.4l-9,13.6C72.2,89,72.5,91,74,92z"/>
</g>
</svg>
