<?xml version="1.0" encoding="utf-8"?>
<!-- Generator: Adobe Illustrator 21.0.0, SVG Export Plug-In . SVG Version: 6.00 Build 0)  -->
<svg version="1.1" id="Layer_1" xmlns="http://www.w3.org/2000/svg" xmlns:xlink="http://www.w3.org/1999/xlink" x="0px" y="0px"
	 width="147px" height="138px" viewBox="0 0 147 138" style="enable-background:new 0 0 147 138;" xml:space="preserve">
<style type="text/css">
	.st0{fill:#5FBCCB;}
</style>
<g>
	<path class="st0" d="M38.3,126.7c3.9,0,7-3.1,7-6.9V92.1c0-3.8-3.2-6.9-7-6.9s-7,3.1-7,6.9v27.7C31.2,123.6,34.4,126.7,38.3,126.7z
		 M35.9,92.1c0-1.3,1.1-2.3,2.3-2.3c1.3,0,2.3,1,2.3,2.3v27.7c0,1.3-1.1,2.3-2.3,2.3c-1.3,0-2.3-1-2.3-2.3V92.1z"/>
	<path class="st0" d="M61.8,126.7c3.9,0,7-3.1,7-6.9V92.1c0-3.8-3.2-6.9-7-6.9c-3.9,0-7,3.1-7,6.9v27.7
		C54.7,123.6,57.9,126.7,61.8,126.7z M59.4,92.1c0-1.3,1.1-2.3,2.3-2.3c1.3,0,2.3,1,2.3,2.3v27.7c0,1.3-1.1,2.3-2.3,2.3
		c-1.3,0-2.3-1-2.3-2.3V92.1z"/>
	<path class="st0" d="M85.2,126.7c3.9,0,7-3.1,7-6.9V92.1c0-3.8-3.2-6.9-7-6.9s-7,3.1-7,6.9v27.7C78.2,123.6,81.4,126.7,85.2,126.7z
		 M82.9,92.1c0-1.3,1.1-2.3,2.3-2.3c1.3,0,2.3,1,2.3,2.3v27.7c0,1.3-1.1,2.3-2.3,2.3c-1.3,0-2.3-1-2.3-2.3V92.1z"/>
	<path class="st0" d="M108.7,126.7c3.9,0,7-3.1,7-6.9V92.1c0-3.8-3.2-6.9-7-6.9c-3.9,0-7,3.1-7,6.9v27.7
		C101.7,123.6,104.8,126.7,108.7,126.7z M106.4,92.1c0-1.3,1.1-2.3,2.3-2.3c1.3,0,2.3,1,2.3,2.3v27.7c0,1.3-1.1,2.3-2.3,2.3
		c-1.3,0-2.3-1-2.3-2.3V92.1z"/>
	<path class="st0" d="M134.6,57.5L134.6,57.5c0-6.4-2.5-12.5-7-17.1v-8.3c0-1.3-1.1-2.3-2.3-2.3h-1.4l3-3c3.5-3.5,3.5-9.1,0-12.5
		c-3.5-3.5-9.2-3.5-12.7,0l0,0L98.4,29.7h-3.7v-6.9c0-0.5-0.2-1-0.5-1.4l-6.6-8.6V4.3c0-1.3-1.1-2.3-2.3-2.3H54.7
		c-1.3,0-2.3,1-2.3,2.3v8.5l-6.6,8.6l0,0c-0.3,0.4-0.5,0.9-0.5,1.4v8.3c-1.4-0.8-3-1.3-4.7-1.3v-9.2c0-1.3-1.1-2.3-2.3-2.3H24.2
		c-1.3,0-2.3,1-2.3,2.3v9.2c-5.2,0.1-9.4,4.3-9.4,9.5v18.2c-5.2,0-9.4,4.1-9.4,9.2s4.2,9.2,9.4,9.2h0.3l7.6,48.8
		c1,6.5,6.6,11.3,13.3,11.2h79.6c6.7,0,12.3-4.7,13.3-11.2l7.6-48.8h0.3c5.2,0,9.4-4.1,9.4-9.2S139.8,57.5,134.6,57.5z M109.7,43.6
		h10.6c-2.9,4.1-4.5,8.9-4.5,13.9H95.6L109.7,43.6z M125.3,44.8c3,3.6,4.6,8,4.6,12.6h-9.4C120.6,52.8,122.2,48.4,125.3,44.8
		L125.3,44.8z M122.8,34.4V39h-8.4l4.7-4.6H122.8z M117.4,17.5c1.7-1.7,4.4-1.7,6.1,0c1.7,1.6,1.7,4.3,0,6c0,0,0,0,0,0l-47,46.2
		c-1.7,1.7-4.4,1.7-6.1,0c-1.7-1.6-1.7-4.3,0-6c0,0,0,0,0,0L117.4,17.5z M80.5,15.9L77,20.5H52.4l3.5-4.6H80.5z M50,25.1h25.8v26.8
		l-5.7,5.6H50V25.1z M89.9,38v-3.7h3.7L89.9,38z M89.9,29.7h-2.3c-1.3,0-2.3,1-2.3,2.3v9.2c0,0.4,0.1,0.7,0.3,1.1l-5,4.9V23.6
		l4.7-6.2l4.7,6.2V29.7z M82.9,6.6v4.6H57.1V6.6H82.9z M35.9,22.8v6.9h-9.4v-6.9H35.9z M17.1,52.8h23.5v-4.6H17.1v-9
		c0-2.7,2.2-4.9,5-4.9h18.3c2.7,0,4.9,2.2,5,4.9v18.2H17.1V52.8z M7.7,66.7c0-2.5,2.1-4.6,4.7-4.6h53.4c-1.8,2.8-1.8,6.4,0,9.2H12.4
		C9.8,71.3,7.7,69.2,7.7,66.7z M121.9,124c-0.6,4.2-4.3,7.3-8.7,7.3H33.7c-4.3,0-8-3.1-8.7-7.3l-7.5-48.1h112L121.9,124z
		 M134.6,71.3h-53l9.4-9.2h43.7c2.6,0,4.7,2.1,4.7,4.6C139.3,69.2,137.2,71.3,134.6,71.3z"/>
</g>
</svg>
