<?xml version="1.0" encoding="utf-8"?>
<!-- Generator: Adobe Illustrator 25.0.0, SVG Export Plug-In . SVG Version: 6.00 Build 0)  -->
<svg version="1.1" id="Camada_1" xmlns="http://www.w3.org/2000/svg" xmlns:xlink="http://www.w3.org/1999/xlink" x="0px" y="0px"
	 width="24px" height="24px" viewBox="0 0 24 24" style="enable-background:new 0 0 24 24;" xml:space="preserve">
<style type="text/css">
	.st0{fill:#54A8B3;}
</style>
<g>
	<path class="st0" d="M15.3,19.4c0-0.9,0-1.7,0-2.6c0-0.7-0.5-1.2-1.1-1.4c-0.6-0.1-1.3,0.1-1.5,0.7c-0.1,0.3-0.2,0.6-0.2,0.8
		c0,1.2,0,2.5,0,3.7c0,1.4-0.8,2.6-2,2.9c-2.2,0.6-3.9-0.9-3.9-2.8c0-2.3,0-4.6,0-7c0-0.3-0.1-0.5-0.4-0.7C2.3,10.6,2.5,5.3,6.4,3
		c0.4-0.2,0.7-0.2,1,0c3.9,2.4,4.1,7.6,0.3,10.2c-0.3,0.2-0.4,0.3-0.4,0.7c0,2.3,0,4.6,0,7c0,1,0.7,1.8,1.7,2c1,0.2,2-0.4,2.3-1.4
		c0.1-0.3,0.1-0.6,0.1-0.9c0-1.3,0-2.6,0-3.9c0-1,0.6-1.7,1.5-2.1c0.9-0.4,1.7-0.2,2.5,0.5c0.5,0.5,0.7,1.1,0.7,1.8
		c0,1.6,0,3.2,0,4.8c0,0.6,0.3,1,0.9,1.1c0.6,0.1,1.1-0.4,1.1-1c0-0.8,0-1.6,0-2.4c0-0.3,0.1-0.6,0.4-0.6c0.4,0,0.5,0.3,0.5,0.6
		c0,0.8,0,1.6,0,2.4c0,1.1-0.8,1.9-1.9,2c-1.1,0.1-2.1-0.9-2-2c0,0,0-0.1,0-0.1C15.3,20.9,15.3,20.1,15.3,19.4
		C15.3,19.4,15.3,19.4,15.3,19.4z M7.4,12.2c0.1,0,0.1,0,0.1,0c2.9-2.3,2.7-6.4-0.4-8.3c-0.1-0.1-0.4,0-0.5,0C4.9,5,4,7.1,4.4,9.1
		c0.3,1.3,1,2.3,2.1,3.2c0-0.2,0-0.4,0-0.5c0-1.1,0-2.1,0-3.2C6.5,8.2,6.6,8,6.9,8c0.3,0,0.5,0.2,0.5,0.5c0,0.1,0,0.2,0,0.3
		C7.4,10,7.4,11.1,7.4,12.2z"/>
	<path class="st0" d="M15.2,3.9c0-0.8,0-1.5,0-2.2c0-0.8,0.5-1.4,1.3-1.4c0.7,0,1.3,0.6,1.3,1.4c0,0.7,0,1.5,0,2.3
		c0.6,0,1.2,0,1.8,0c0-0.5,0-1,0-1.5c0-0.3,0-0.6,0-0.9c0-0.7,0.6-1.3,1.3-1.2c0.7,0,1.2,0.6,1.2,1.3c0,0.4,0,0.8,0,1.1
		c0,0.4,0,0.8,0,1.2c0.1,0,0.2,0.1,0.4,0.1c0.6,0.1,1,0.5,1.2,1.1c0.1,0.5-0.1,1.1-0.6,1.4c-0.2,0.1-0.3,0.3-0.3,0.6
		c0,0.9,0,1.9-0.1,2.8c-0.2,1.4-1,2.4-2.2,3c-0.2,0.1-0.3,0.3-0.3,0.5c0,0.2,0,0.4,0,0.6c0,0.9-0.7,1.5-1.6,1.5
		c-0.8,0-1.6-0.7-1.5-1.5c0-0.7-0.2-1.1-0.8-1.5c-1.2-0.7-1.8-1.9-1.8-3.3c0-0.7,0-1.5,0-2.2c0-0.2-0.1-0.4-0.2-0.4
		c-0.5-0.4-0.8-0.9-0.7-1.5c0.1-0.6,0.6-1,1.3-1.1C15,3.9,15.1,3.9,15.2,3.9z M15.5,6.7c0,1,0,1.9,0,2.7c0.1,1.6,1.4,2.8,3,2.9
		c1.5,0.1,3.1-0.9,3.3-2.4c0.2-1,0-2.1,0-3.2C19.7,6.7,17.6,6.7,15.5,6.7z M18.7,4.9c-1.1,0-2.2,0-3.3,0c-0.2,0-0.4,0-0.5,0
		c-0.2,0.1-0.4,0.3-0.4,0.5c0,0.1,0.2,0.3,0.4,0.4c0.1,0.1,0.3,0,0.4,0c2.2,0,4.4,0,6.6,0c0.2,0,0.4,0,0.5,0
		c0.1-0.1,0.3-0.3,0.3-0.4c0-0.1-0.2-0.3-0.3-0.4c-0.1-0.1-0.3,0-0.4,0C20.9,4.9,19.8,4.9,18.7,4.9z M16.8,3.9c0-0.8,0-1.6,0-2.3
		c0-0.1-0.2-0.3-0.3-0.3c-0.1,0-0.3,0.2-0.4,0.3c0,0.8,0,1.6,0,2.4C16.4,3.9,16.6,3.9,16.8,3.9z M21.2,3.9c0-0.8,0-1.6,0-2.4
		c0-0.1-0.2-0.3-0.3-0.3c-0.1,0-0.4,0.2-0.4,0.3c0,0.8,0,1.6,0,2.4C20.8,3.9,21,3.9,21.2,3.9z M18,13.3c0,0.5-0.2,1,0.4,1.2
		c0.2,0.1,0.5,0.1,0.7-0.1c0.4-0.3,0.3-0.7,0.2-1.2C18.9,13.3,18.5,13.3,18,13.3z"/>
	<path class="st0" d="M1.2,7.7c0.2,0,0.4-0.1,0.5,0C1.9,7.8,2.1,8,2.1,8.1c0,0.1-0.2,0.4-0.3,0.4C1.4,8.7,1,8.7,0.6,8.6
		c-0.1,0-0.4-0.3-0.3-0.4c0-0.2,0.2-0.3,0.4-0.4C0.8,7.7,1,7.7,1.2,7.7C1.2,7.7,1.2,7.7,1.2,7.7z"/>
	<path class="st0" d="M12.7,7.7c0.2,0,0.4-0.1,0.5,0c0.2,0.1,0.4,0.3,0.4,0.4c0,0.1-0.2,0.4-0.4,0.4c-0.4,0.1-0.7,0.1-1.1,0
		c-0.2,0-0.4-0.3-0.4-0.4c0-0.2,0.3-0.3,0.4-0.4C12.3,7.7,12.5,7.7,12.7,7.7C12.7,7.7,12.7,7.7,12.7,7.7z"/>
	<path class="st0" d="M2.3,3.7c0.1,0.1,0.3,0.1,0.3,0.2c0.3,0.2,0.5,0.5,0.7,0.7c0.1,0.1,0.1,0.5,0,0.6c-0.1,0.1-0.4,0.1-0.6,0
		C2.5,5,2.2,4.7,2,4.4C1.9,4.3,1.9,4.1,2,4C2,3.9,2.2,3.8,2.3,3.7z"/>
	<path class="st0" d="M12,4.1c-0.1,0.1-0.1,0.3-0.2,0.3c-0.2,0.3-0.5,0.5-0.7,0.7c-0.1,0.1-0.5,0.1-0.6,0c-0.1-0.1-0.1-0.4,0-0.6
		c0.2-0.3,0.5-0.5,0.8-0.8c0.1-0.1,0.3-0.1,0.5,0C11.8,3.9,11.9,4,12,4.1z"/>
	<path class="st0" d="M3.5,11.4c-0.1,0.1-0.1,0.3-0.2,0.3c-0.2,0.3-0.5,0.5-0.7,0.7c-0.1,0.1-0.5,0.1-0.6,0C2,12.4,1.9,12,2,11.9
		c0.2-0.3,0.5-0.5,0.7-0.7C2.9,11,3.1,11,3.3,11.1C3.4,11.1,3.5,11.3,3.5,11.4z"/>
	<path class="st0" d="M12,12.2c-0.1,0.1-0.2,0.3-0.3,0.3c-0.1,0.1-0.4,0-0.5-0.1c-0.3-0.2-0.6-0.5-0.8-0.8c-0.1-0.1-0.1-0.4,0-0.5
		c0.1-0.1,0.4-0.2,0.5-0.1c0.4,0.3,0.7,0.6,1,0.9C12,12,12,12.1,12,12.2z"/>
	<path class="st0" d="M19.2,17.2c-0.2,0.1-0.4,0.3-0.5,0.3c-0.2,0-0.4-0.3-0.4-0.4c0-0.2,0.3-0.4,0.4-0.4c0.2,0,0.3,0.2,0.5,0.3
		C19.2,17.1,19.2,17.2,19.2,17.2z"/>
	<path class="st0" d="M18.7,8.5c-0.4,0-0.9,0-1.3,0c-0.3,0-0.5-0.1-0.5-0.5c0-0.3,0.2-0.4,0.5-0.4c0.9,0,1.7,0,2.6,0
		c0.3,0,0.5,0.1,0.5,0.4c0,0.3-0.2,0.5-0.5,0.5C19.5,8.5,19.1,8.5,18.7,8.5z"/>
	<path class="st0" d="M18.7,10.5c-0.4,0-0.9,0-1.3,0c-0.3,0-0.5-0.1-0.5-0.5c0-0.3,0.2-0.5,0.5-0.5c0.9,0,1.8,0,2.6,0
		c0.3,0,0.5,0.2,0.5,0.5c0,0.2-0.3,0.4-0.5,0.4C19.6,10.5,19.1,10.5,18.7,10.5z"/>
</g>
</svg>
