<?xml version="1.0" encoding="utf-8"?>
<!-- Generator: Adobe Illustrator 21.0.0, SVG Export Plug-In . SVG Version: 6.00 Build 0)  -->
<svg version="1.1" id="Layer_1" xmlns="http://www.w3.org/2000/svg" xmlns:xlink="http://www.w3.org/1999/xlink" x="0px" y="0px"
	 width="147px" height="138px" viewBox="0 0 147 138" style="enable-background:new 0 0 147 138;" xml:space="preserve">
<path d="M145.2,35L76.5,11.2h-2L5.8,35v5.7v13.7v2.1v35.4h0.5c-2.8,2.3-4.7,5.7-4.7,9.6c0,3.2,1.2,5.8,3,8.1l-2.8,9.8
	c-0.5,1.3-0.2,2.7,0.8,3.9c2.4,3.3,8.8,3.6,10.8,3.6s8.3-0.3,10.8-3.6c0.9-1.2,1.2-2.6,0.8-3.9l-2.5-9c2.3-2.3,3.8-5.3,3.8-8.7
	c0-3.9-1.8-7.3-4.7-9.6h0.5V62l6.2,2.1v29.3c0,12.2,20.5,21.4,47.7,21.4s47.7-9.2,47.7-21.4V64.1l22-7.7V40.7L145.2,35z M75.4,17.2
	L135,37.9L75.4,58.6L15.9,37.9L75.4,17.2z M13.8,107.6c-3.5,0-6.2-2.8-6.2-6.2s2.8-6.2,6.2-6.2s6.2,2.8,6.2,6.2
	S17.1,107.6,13.8,107.6z M18.7,119.6c-0.9,0.4-2.7,0.9-5.4,0.9s-4.5-0.4-5.4-0.9l2-6.8c1.2,0.4,2.5,0.6,3.9,0.6c1,0,2.1-0.2,3.2-0.4
	L18.7,119.6z M15.7,89.5c-0.6-0.2-1.3-0.2-2-0.2s-1.3,0-2,0.2V58.6l3.9,1.3V89.5z M117.1,93.4c0,7.3-17.1,15.4-41.7,15.4
	s-41.7-8.1-41.7-15.4V66.2l41.7,14.4l41.7-14.4V93.4z M139,52.3L75.4,74.3L11.8,52.3v-8.7L75.4,65L139,43.6V52.3z"/>
<path d="M111.3,91.1v-7.3c-2.4,2.4-6.3,4.5-7.8,5.4l0.2,6.6C106.6,94.4,109.2,92.8,111.3,91.1z"/>
<path d="M39.9,84.5v7.3c8.8,5.6,21.9,9,35.5,9c2.5,0,4.7,0,7.2-0.3v-6c-2.4,0.2-4.8,0.3-7.2,0.3C60.9,94.9,47.5,91,39.9,84.5z"/>
</svg>
