<?xml version="1.0" encoding="utf-8"?>
<!-- Generator: Adobe Illustrator 25.0.0, SVG Export Plug-In . SVG Version: 6.00 Build 0)  -->
<svg version="1.1" id="Camada_1" xmlns="http://www.w3.org/2000/svg" xmlns:xlink="http://www.w3.org/1999/xlink" x="0px" y="0px"
	 width="255px" height="51px" viewBox="0 0 255 51" style="enable-background:new 0 0 255 51;" xml:space="preserve">
<style type="text/css">
	.st0{fill:#1D1D1B;}
	.st1{clip-path:url(#SVGID_2_);fill-rule:evenodd;clip-rule:evenodd;fill:#00798C;}
	.st2{fill-rule:evenodd;clip-rule:evenodd;fill:#00798C;}
</style>
<g>
	<g>
		<path class="st0" d="M109.2,44.1v0.6h-3.5v4.4h4.2v0.6h-5.1V39.2h5.1v0.6h-4.2v4.3H109.2z"/>
		<path class="st0" d="M113.9,49.8h-0.8V39.2h1.1l3.9,9v-9h0.8v10.6h-0.9l-4-9.5V49.8z"/>
		<path class="st0" d="M126.6,44.1v0.6H123v4.4h4.2v0.6h-5.1V39.2h5.1v0.6H123v4.3H126.6z"/>
		<path class="st0" d="M133.2,39.2c2,0,2.8,0.9,2.8,2.4v0.9c0,1.2-0.6,2-1.9,2.2c1.3,0.2,1.9,1,1.9,2.2v1.7c0,0.4,0,0.9,0.3,1.3
			h-0.9c-0.2-0.3-0.3-0.7-0.3-1.3v-1.7c0-1.4-0.9-1.8-2.4-1.8h-1.3v4.8h-0.8V39.2H133.2z M132.7,44.4c1.5,0,2.4-0.3,2.4-1.8v-1
			c0-1.1-0.5-1.8-1.9-1.8h-1.8v4.6H132.7z"/>
		<path class="st0" d="M145,41.8v0.8h-0.8v-0.8c0-1.1-0.5-2-2-2c-1.4,0-2,0.9-2,2v5.5c0,1.1,0.5,2,2,2c1.4,0,2-0.9,2-2V45h-1.7v-0.6
			h2.5v2.9c0,1.5-0.8,2.7-2.8,2.7s-2.8-1.2-2.8-2.7v-5.4c0-1.5,0.8-2.7,2.8-2.7S145,40.2,145,41.8z"/>
		<path class="st0" d="M149.1,39.2v10.6h-0.8V39.2H149.1z"/>
		<path class="st0" d="M153.7,47.4l-0.6,2.4h-0.8l2.8-10.7h1.2l2.9,10.7h-0.8l-0.6-2.4H153.7z M153.8,46.8h3.8l-1.9-6.9L153.8,46.8z
			"/>
		<path class="st0" d="M167.9,39.2v10.6H167V39.2H167.9z"/>
		<path class="st0" d="M172,49.8h-0.8V39.2h1.1l3.9,9v-9h0.8v10.6H176l-4-9.5V49.8z"/>
		<path class="st0" d="M182.4,49.8v-10h-2.6v-0.6h6.1v0.6h-2.6v10H182.4z"/>
		<path class="st0" d="M193.2,44.1v0.6h-3.5v4.4h4.2v0.6h-5.1V39.2h5.1v0.6h-4.2v4.3H193.2z"/>
		<path class="st0" d="M197.1,49.8V39.2h0.8v10h4.1v0.6H197.1z"/>
		<path class="st0" d="M206,39.2v10.6h-0.8V39.2H206z"/>
		<path class="st0" d="M214.8,41.8v0.8H214v-0.8c0-1.1-0.5-2-2-2c-1.4,0-2,0.9-2,2v5.5c0,1.1,0.5,2,2,2c1.4,0,2-0.9,2-2V45h-1.7
			v-0.6h2.5v2.9c0,1.5-0.8,2.7-2.8,2.7c-2,0-2.8-1.2-2.8-2.7v-5.4c0-1.5,0.8-2.7,2.8-2.7C214,39.1,214.8,40.2,214.8,41.8z"/>
		<path class="st0" d="M222.5,44.1v0.6h-3.5v4.4h4.2v0.6h-5.1V39.2h5.1v0.6h-4.2v4.3H222.5z"/>
		<path class="st0" d="M227.2,49.8h-0.8V39.2h1.1l3.9,9v-9h0.8v10.6h-0.9l-4-9.5V49.8z"/>
		<path class="st0" d="M237.7,49.8v-10H235v-0.6h6.1v0.6h-2.6v10H237.7z"/>
		<path class="st0" d="M248.4,44.1v0.6h-3.5v4.4h4.2v0.6H244V39.2h5.1v0.6h-4.2v4.3H248.4z"/>
	</g>
	<g>
		<g>
			<defs>
				<rect id="SVGID_1_" x="5.3" y="1.3" width="244.4" height="34.1"/>
			</defs>
			<clipPath id="SVGID_2_">
				<use xlink:href="#SVGID_1_"  style="overflow:visible;"/>
			</clipPath>
			<path class="st1" d="M113.5,10.1l0,16.2h23.6c1.7,0,3-0.4,3.8-1.2c0.8-0.8,1.2-2.1,1.2-3.8v-6.2c0-1.7-0.4-3-1.2-3.8
				c-0.8-0.8-2.1-1.2-3.8-1.3v0H113.5L113.5,10.1L113.5,10.1z M104.6,1.3l32.6,0.1v0c4.5,0,7.9,1.2,10.3,3.5
				c2.3,2.3,3.5,5.8,3.5,10.3v6.2c0,4.5-1.2,8-3.5,10.3c-2.3,2.3-5.8,3.5-10.3,3.5h-32.6V1.3L104.6,1.3L104.6,1.3z"/>
			<polygon class="st1" points="218.2,18.3 203.6,8.5 203.6,1.3 209.6,1.3 226.7,12.7 243.6,1.3 249.7,1.3 249.7,8.4 235.2,18.3 
				249.7,28.1 249.7,35.3 243.8,35.3 226.7,23.9 209.5,35.3 203.6,35.3 203.6,28.1 218.2,18.3 218.2,18.3 			"/>
			<path class="st1" d="M100.5,21.7v-6.8l-36.4,0v-4.8l36.4,0V1.3l-40.4,0c-1.5,0-2.7,0.4-3.6,1.3c-0.9,0.9-1.3,2.1-1.3,3.6l0,12
				l0,12c0,1.5,0.4,2.7,1.3,3.6c0.9,0.9,2.1,1.3,3.6,1.3l40.4,0v-8.9l-36.4,0v-4.6L100.5,21.7L100.5,21.7L100.5,21.7z"/>
		</g>
		<path class="st2" d="M15.1,25.3h26.3v-6.1h9.8v11c0,1.5-0.4,2.7-1.3,3.6c-0.9,0.9-2.1,1.3-3.6,1.3H10.2c-1.5,0-2.7-0.4-3.6-1.3
			c-0.9-0.9-1.3-2.1-1.3-3.6v-29h9.8L15.1,25.3L15.1,25.3L15.1,25.3z"/>
		<path class="st2" d="M159.3,4.7l-6.6,30.4h9.6l2.9-13.4h23.9l3.1,13.4h9.6l-7-30.4c-0.5-2.3-1.8-3.4-4-3.4h-27.2
			C161.4,1.3,159.8,2.4,159.3,4.7L159.3,4.7L159.3,4.7z M167.7,10.1h18.7l1.1,4.8h-20.9L167.7,10.1L167.7,10.1L167.7,10.1z"/>
	</g>
</g>
</svg>
